<svg xmlns="http://www.w3.org/2000/svg" viewBox="0 0 103.86 107.62"><defs><style>.a{fill:#231f20}</style></defs><title>food_icon</title><path class="a" d="M59.76 31.9h-5.15v-7h-4.12v7h-5.16V13.46h5.15v7.23h4.34v-7.23h4.94V31.9zm-4.31-.9h3.47V14.32h-3.26v7.23h-6v-7.23h-3.47V31h3.47v-7h5.8v7zM52.55 0l1.23 3.86h3.96l-3.2 2.39 1.22 3.86-3.21-2.38-3.21 2.38 1.23-3.86-3.21-2.39h3.97L52.55 0zM62.55 4.72l.84 2.64h2.71l-2.19 1.63.83 2.64L62.55 10l-2.19 1.63.84-2.64L59 7.36h2.71l.84-2.64zM41.6 4.72l.83 2.64h2.71l-2.19 1.63.84 2.64L41.6 10l-2.2 1.63.84-2.64-2.19-1.63h2.71l.84-2.64zM67.15 11.68l.69 2.19h2.24l-1.81 1.35.69 2.19-1.81-1.36-1.82 1.36.7-2.19-1.82-1.35h2.24l.7-2.19zM37.62 11.68l.69 2.19h2.25l-1.82 1.35.69 2.19-1.81-1.36-1.82 1.36.7-2.19-1.82-1.35h2.25l.69-2.19zM14.226 16.871l1.06-1.06 75.081 75.08-1.06 1.061z"/><path class="a" d="M14.226 90.891l75.08-75.08 1.061 1.06-75.08 75.081z"/><path d="M48.32 86.92h1.07v20.7h-1.07z"/><path d="M48.91 87.36l-3.17-1.88a1 1 0 0 1-.37-.82v-.29h7.08v.33a1 1 0 0 1-.38.82z"/><path d="M49.45 84.58h-1.08v-7.92a.57.57 0 0 1 .54-.6.57.57 0 0 1 .54.6v7.92zM52.45 84.58h-1.08v-7.92a.57.57 0 0 1 .54-.6.57.57 0 0 1 .54.6v7.92zM46.45 84.58h-1.08v-7.92a.57.57 0 0 1 .54-.6.57.57 0 0 1 .54.6v7.92zM59.44 92l-3.51-15.54a.52.52 0 0 0-1 .11v31h1.08v-12.4a.51.51 0 0 1 .24-.44L59.01 93a1 1 0 0 0 .43-1z"/><path class="a" d="M96.78 69.66l-14.66-.21-3.28-21.68 1.02-.15 3.15 20.81 12.9.18 3.64-20.72 1.02.18-3.79 21.59z"/><path class="a" d="M89.08 64.56l-1-.37L97.66 39a1.33 1.33 0 0 1 2.37-.25l3.83 6-.87.56-3.83-6a.3.3 0 0 0-.53 0zM79.279 50.583l.014-1.04 12.599.173-.015 1.04z"/><path class="a" d="M96.06 50.816l.014-1.04 3.94.054-.015 1.04zM13.78 50.95h1.13v16.59h-1.13z"/><path class="a" d="M14.34 67.12l8.07 2.54H6.27l8.07-2.54z"/><circle class="a" cx="15.61" cy="44.81" r="2.25"/><path class="a" d="M14.34 51.73L.01 38.1h28.66zM2.82 39.22l11.52 11 11.52-11h-23z"/><path class="a" d="M13.78 50.95h1.13v16.59h-1.13z"/><circle class="a" cx="15.61" cy="44.81" r="2.25"/><path class="a" d="M14.34 51.73L.01 38.1h28.66zM2.82 39.22l11.52 11 11.52-11h-23z"/></svg>