<svg xmlns="http://www.w3.org/2000/svg" viewBox="0 0 103.85 107.62"><defs><style>.a{fill:#fff}</style></defs><title>food_icon_white</title><path class="a" d="M59.75 31.9H54.6v-7h-4.12v7h-5.16V13.46h5.15v7.23h4.34v-7.23h4.94V31.9zm-4.31-.9h3.47V14.32h-3.26v7.23h-6v-7.23h-3.47V31h3.47v-7h5.8v7zm-2.9-31l1.23 3.86h4l-3.2 2.39 1.22 3.86-3.25-2.38-3.21 2.38 1.23-3.86-3.21-2.39h4zm10 4.72l.84 2.64h2.71L63.9 9l.83 2.64L62.54 10l-2.19 1.63.84-2.63-2.2-1.64h2.71zm-21 0l.83 2.64h2.71L42.99 9l.84 2.64L41.59 10l-2.2 1.63.84-2.63-2.24-1.64h2.71zm25.55 7l.69 2.19h2.24l-1.81 1.35.78 2.15-1.81-1.36-1.82 1.36.63-2.19-1.82-1.35h2.24zm-29.53 0l.69 2.19h2.25l-1.82 1.35.69 2.19-1.81-1.36-1.77 1.32.7-2.19-1.82-1.35h2.25zm-23.34 5.15l1.06-1.06 75.08 75.08L89.3 92z"/><path class="a" d="M14.22 90.89L89.3 15.81l1.06 1.06L15.28 92zM48.31 86.92h1.07v20.7h-1.07v-20.7z"/><path class="a" d="M48.9 87.36l-3.17-1.88a1 1 0 0 1-.37-.82v-.29h7.08v.33a1 1 0 0 1-.38.82z"/><path class="a" d="M49.44 84.58h-1.08v-7.92a.57.57 0 0 1 .54-.6.57.57 0 0 1 .54.6v7.92zm3 0h-1.08v-7.92a.57.57 0 0 1 .54-.6.57.57 0 0 1 .54.6v7.92zm-6 0h-1.08v-7.92a.57.57 0 0 1 .54-.6.57.57 0 0 1 .54.6v7.92zm13 7.42l-3.52-15.54a.52.52 0 0 0-1 .11v31h1.07v-12.4a.51.51 0 0 1 .24-.44L58.99 93a1 1 0 0 0 .44-1zM96.77 69.66l-14.66-.21-3.28-21.68 1-.15 3.16 20.81 12.9.18 3.64-20.72 1 .18z"/><path class="a" d="M89.07 64.56l-1-.37L97.65 39a1.33 1.33 0 0 1 2.37-.25l3.83 6-.87.56-3.83-6a.3.3 0 0 0-.53 0zm-9.8-14v-1l12.6.17v1z"/><path class="a" d="M96.05 50.82v-1l3.94.01v1zM13.77 51h1.13v16.54h-1.13V51z"/><path class="a" d="M14.33 67.12l8.07 2.54H6.26z"/><circle class="a" cx="15.6" cy="44.81" r="2.25"/><path class="a" d="M14.33 51.73L-.01 38.1h28.67zM2.81 39.22l11.52 11 11.52-11h-23z"/><path class="a" d="M13.77 51h1.13v16.54h-1.13V51z"/><circle class="a" cx="15.6" cy="44.81" r="2.25"/><path class="a" d="M14.33 51.73L-.01 38.1h28.67zM2.81 39.22l11.52 11 11.52-11h-23z"/></svg>