<svg xmlns="http://www.w3.org/2000/svg" viewBox="0 0 103.85 107.62">
  <defs>
    <style>
      .a {
        fill: #fff;
      }
    </style>
  </defs>
  <title>food_icon_white</title>
  <path class="a" d="M59.76,31.9H54.61v-7H50.49v7H45.33V13.46h5.15v7.23h4.34V13.46h4.94V31.9ZM55.45,31h3.47V14.32H55.66v7.23h-6V14.32H46.19V31h3.47V24h5.8v7h0ZM52.55,0l1.23,3.86h4l-3.2,2.39,1.22,3.86L52.55,7.73l-3.21,2.38,1.23-3.86L47.36,3.86h4Zm10,4.72,0.84,2.64H66.1L63.91,9l0.83,2.64L62.55,10l-2.19,1.63L61.2,9,59,7.36h2.71Zm-21,0,0.83,2.64h2.71L43,9l0.84,2.64L41.6,10l-2.2,1.63L40.24,9,38,7.36h2.71Zm25.55,7,0.69,2.19h2.24l-1.81,1.35L69,17.41l-1.81-1.36-1.82,1.36L66,15.22l-1.82-1.35h2.24Zm-29.53,0,0.69,2.19h2.25l-1.82,1.35,0.69,2.19-1.81-1.36L35.8,17.41l0.7-2.19-1.82-1.35h2.25ZM14.23,16.87l1.06-1.06L90.37,90.89,89.31,92Z" transform="translate(-0.01)"/>
  <path class="a" d="M14.23,90.89L89.31,15.81l1.06,1.06L15.29,92Z" transform="translate(-0.01)"/>
  <path class="a" d="M48.32,86.92h1.07v20.7H48.32V86.92Z" transform="translate(-0.01)"/>
  <path class="a" d="M48.91,87.36l-3.17-1.88a1,1,0,0,1-.37-0.82V84.37h7.08V84.7a1,1,0,0,1-.38.82Z" transform="translate(-0.01)"/>
  <path class="a" d="M49.45,84.58H48.37V76.66a0.57,0.57,0,0,1,.54-0.6h0a0.57,0.57,0,0,1,.54.6h0v7.92Zm3,0H51.37V76.66a0.57,0.57,0,0,1,.54-0.6h0a0.57,0.57,0,0,1,.54.6h0v7.92Zm-6,0H45.37V76.66a0.57,0.57,0,0,1,.54-0.6h0a0.57,0.57,0,0,1,.54.6h0v7.92Zm13,7.42L55.93,76.46a0.52,0.52,0,0,0-1,.11v31H56V95.17a0.51,0.51,0,0,1,.24-0.44L59,93A1,1,0,0,0,59.44,92Z" transform="translate(-0.01)"/>
  <path class="a" d="M96.78,69.66l-14.66-.21L78.84,47.77l1-.15L83,68.43l12.9,0.18,3.64-20.72,1,0.18Z" transform="translate(-0.01)"/>
  <path class="a" d="M89.08,64.56l-1-.37L97.66,39a1.33,1.33,0,0,1,2.37-.25l3.83,6-0.87.56-3.83-6a0.3,0.3,0,0,0-.53,0Zm-9.8-14v-1l12.6,0.17v1Z" transform="translate(-0.01)"/>
  <path class="a" d="M96.06,50.82v-1L100,49.83v1ZM13.78,51h1.13V67.54H13.78V51Z" transform="translate(-0.01)"/>
  <path class="a" d="M14.34,67.12l8.07,2.54H6.27Z" transform="translate(-0.01)"/>
  <circle class="a" cx="15.6" cy="44.81" r="2.25"/>
  <path class="a" d="M14.34,51.73L0,38.1H28.67ZM2.82,39.22l11.52,11,11.52-11h-23Z" transform="translate(-0.01)"/>
  <path class="a" d="M13.78,51h1.13V67.54H13.78V51Z" transform="translate(-0.01)"/>
  <circle class="a" cx="15.6" cy="44.81" r="2.25"/>
  <path class="a" d="M14.34,51.73L0,38.1H28.67ZM2.82,39.22l11.52,11,11.52-11h-23Z" transform="translate(-0.01)"/>
</svg>
