<?xml version="1.0" encoding="utf-8"?>
<!-- Generator: Adobe Illustrator 19.2.0, SVG Export Plug-In . SVG Version: 6.00 Build 0)  -->
<svg version="1.1" id="Layer_1" xmlns="http://www.w3.org/2000/svg" xmlns:xlink="http://www.w3.org/1999/xlink" x="0px" y="0px"
	 viewBox="0 0 16 16" style="enable-background:new 0 0 16 16;" xml:space="preserve">
<style type="text/css">
	.st0{fill:#000000;}
</style>
<path id="left" fill="#000000" class="st0" d="M4.9,14.3c0,0.3-0.2,0.3-0.4,0.2L1,12.6c-0.2-0.1-0.4-0.4-0.4-0.6l0.8-8.6C1.4,3.2,1.6,3,1.8,3L4,2.5
	c0.2,0,0.4,0.2,0.4,0.5L4.9,14.3L4.9,14.3z"/>
<path id="middle" fill="#000000" class="st0" d="M5.4,2.3c-0.3,0-0.5,0.3-0.5,0.6l0.5,11.3c0,0.3,0.2,0.4,0.5,0.3l3.4-1c0.3-0.1,0.5-0.3,0.5-0.6
	l0.5-11.3c0-0.3-0.2-0.4-0.6-0.3L5.4,2.3z"/>
<path id="right" fill="#000000" class="st0" d="M15.4,14.4c0,0.3-0.2,0.4-0.5,0.3l-4.3-1.2c-0.3-0.1-0.5-0.3-0.5-0.6l0.6-11.3
	c0-0.3,0.2-0.4,0.4-0.3l2.7,1c0.2,0.1,0.4,0.3,0.4,0.6L15.4,14.4L15.4,14.4z"/>
</svg>
