<svg id="Layer_1" xmlns="http://www.w3.org/2000/svg" viewBox="0 0 475 433"><style>.st0{fill:#f39c12}</style><path id="left" class="st0" d="M136.8 417.7c.4 8.3-6.1 10.8-14.4 5.6L13.9 362.5C6.1 358.6.1 350.2.5 343.8L26.5 69c.3-6.5 5.4-12.4 11.4-13L108 41.3c6.1-.1 11.3 6.4 11.7 14.6l17.1 361.8z"/><path id="middle" class="st0" d="M153.9 32.3c-9.8 2.4-17.4 11-17 19.3L152 414.7c.3 8.3 7 13.1 14.8 10.7l107.9-31.6c8.2-2.4 15.1-11 15.5-19.3l15-363.1c.3-8.3-7.6-13.1-17.7-10.7L153.9 32.3z"/><path id="right" class="st0" d="M473.5 421.5c.4 8.3-6.5 13.1-15.5 10.7l-138.1-38.4c-8.6-2.4-15.1-11-14.7-19.3l18.9-363.1c.4-8.3 5.8-13.1 11.9-10.7l85.7 31.6c6.6 2.4 12.3 11 12.7 19.3l39.1 369.9z"/></svg>